<?xml version="1.0" encoding="UTF-8" standalone="no"?>
<!DOCTYPE svg PUBLIC "-//W3C//DTD SVG 1.1//EN" "http://www.w3.org/Graphics/SVG/1.1/DTD/svg11.dtd">
<svg width="100%" height="100%" viewBox="0 0 1545 358" version="1.1" xmlns="http://www.w3.org/2000/svg" xmlns:xlink="http://www.w3.org/1999/xlink" xml:space="preserve" xmlns:serif="http://www.serif.com/" style="fill-rule:evenodd;clip-rule:evenodd;stroke-linejoin:round;stroke-miterlimit:2;">
    <g transform="matrix(1,0,0,1,-123,-72)">
        <path d="M626.4,291.3L626.4,195.6C626.4,166.5 641,149.8 669,149.8C697.1,149.8 711.6,166.4 711.6,195.6L711.6,211.2L684.6,211.2L684.6,193.8C684.6,180.8 678.9,175.9 669.8,175.9C660.7,175.9 655,180.8 655,193.8L655,293.4C655,306.4 660.7,311.1 669.8,311.1C678.9,311.1 684.6,306.4 684.6,293.4L684.6,257.8L670.3,257.8L670.3,231.8L711.6,231.8L711.6,291.3C711.6,320.4 697,337.1 669,337.1C641,337.1 626.4,320.5 626.4,291.3Z" style="fill:rgb(90,68,149);fill-rule:nonzero;"/>
        <path d="M730.2,152.5L758.8,152.5L758.8,308.5L805.9,308.5L805.9,334.5L730.2,334.5L730.2,152.5Z" style="fill:rgb(90,68,149);fill-rule:nonzero;"/>
        <path d="M816.5,291.3L816.5,195.6C816.5,166.5 831.8,149.8 859.9,149.8C888,149.8 903.3,166.4 903.3,195.6L903.3,291.3C903.3,320.4 888,337.1 859.9,337.1C831.8,337.1 816.5,320.5 816.5,291.3ZM874.7,293.2L874.7,193.9C874.7,180.9 869,176 859.9,176C850.8,176 845.1,180.9 845.1,193.9L845.1,293.2C845.1,306.2 850.8,311.1 859.9,311.1C869,311.1 874.7,306.2 874.7,293.2Z" style="fill:rgb(90,68,149);fill-rule:nonzero;"/>
        <path d="M920.5,291.3L920.5,195.6C920.5,166.5 935.8,149.8 963.9,149.8C992,149.8 1007.3,166.4 1007.3,195.6L1007.3,291.3C1007.3,320.4 992,337.1 963.9,337.1C935.8,337.1 920.5,320.5 920.5,291.3ZM978.7,293.2L978.7,193.9C978.7,180.9 973,176 963.9,176C954.8,176 949.1,180.9 949.1,193.9L949.1,293.2C949.1,306.2 954.8,311.1 963.9,311.1C973,311.1 978.7,306.2 978.7,293.2Z" style="fill:rgb(90,68,149);fill-rule:nonzero;"/>
        <path d="M1026.5,152.5L1067.4,152.5L1085.6,282.8L1086.1,282.8L1104.3,152.5L1145.1,152.5L1145.1,334.5L1118.1,334.5L1118.1,196.7L1117.6,196.7L1096.8,334.5L1072.9,334.5L1052,196.7L1051.5,196.7L1051.5,334.5L1026.5,334.5L1026.5,152.5Z" style="fill:rgb(90,68,149);fill-rule:nonzero;"/>
        <path d="M1161.5,291.3L1161.5,280.9L1188.5,280.9L1188.5,293.4C1188.5,306.4 1194.2,311.1 1203.3,311.1C1212.4,311.1 1218.1,306.4 1218.1,292.9C1218.1,277.8 1212.4,268.2 1193.7,251.8C1169.8,230.7 1162,215.9 1162,195.1C1162,166.5 1176.8,149.9 1204.6,149.9C1232.4,149.9 1246.2,166.5 1246.2,195.7L1246.2,203.2L1219.2,203.2L1219.2,193.8C1219.2,180.8 1214,175.9 1204.9,175.9C1195.8,175.9 1190.6,180.8 1190.6,193.3C1190.6,206.6 1196.6,216.2 1215.3,232.6C1239.2,253.7 1246.8,268.2 1246.8,290.8C1246.8,320.4 1231.7,337.1 1203.6,337.1C1175.5,337.1 1161.5,320.5 1161.5,291.3Z" style="fill:rgb(90,68,149);fill-rule:nonzero;"/>
        <path d="M1285.5,178.5L1255.6,178.5L1255.6,152.5L1344,152.5L1344,178.5L1314.1,178.5L1314.1,334.5L1285.5,334.5L1285.5,178.5Z" style="fill:rgb(90,68,149);fill-rule:nonzero;"/>
        <path d="M1354.7,291.3L1354.7,195.6C1354.7,166.5 1370,149.8 1398.1,149.8C1426.2,149.8 1441.5,166.4 1441.5,195.6L1441.5,291.3C1441.5,320.4 1426.2,337.1 1398.1,337.1C1370,337.1 1354.7,320.5 1354.7,291.3ZM1412.9,293.2L1412.9,193.9C1412.9,180.9 1407.2,176 1398.1,176C1389,176 1383.3,180.9 1383.3,193.9L1383.3,293.2C1383.3,306.2 1389,311.1 1398.1,311.1C1407.2,311.1 1412.9,306.2 1412.9,293.2Z" style="fill:rgb(90,68,149);fill-rule:nonzero;"/>
        <path d="M1460.8,152.5L1496.7,152.5L1524.5,261.4L1525,261.4L1525,152.5L1550.5,152.5L1550.5,334.5L1521.1,334.5L1486.8,201.6L1486.3,201.6L1486.3,334.5L1460.8,334.5L1460.8,152.5Z" style="fill:rgb(90,68,149);fill-rule:nonzero;"/>
        <path d="M1571.8,152.5L1649.8,152.5L1649.8,178.5L1600.4,178.5L1600.4,226.6L1639.7,226.6L1639.7,252.6L1600.4,252.6L1600.4,308.5L1649.8,308.5L1649.8,334.5L1571.8,334.5L1571.8,152.5Z" style="fill:rgb(90,68,149);fill-rule:nonzero;"/>
    </g>
    <g id="Fill-32" transform="matrix(1,0,0,1,-123,-72)">
        <path d="M368.6,188.3C388.2,209.1 399.4,236.7 399.4,265.6C399.4,327.7 348.9,378.2 286.8,378.2C224.7,378.2 174.2,327.7 174.2,265.6C174.2,221.9 199.9,182.3 238.4,163.9L285.6,329.3L304.4,271.3C304.5,271 315.1,238.5 334.6,202.3C359.3,156.3 386.7,125.9 413.6,114.4L399,80.2C377,89.6 357.6,106.4 341,126.1C323.8,119.4 305.4,115.9 286.9,115.9L295.5,153.4C303.2,154 310.7,155.3 318,157.4C306.7,174.9 297.3,192.8 289.8,208.7L263.5,116.5L245.7,121.6C181.8,139.8 137.1,199 137.1,265.6C137.1,348.1 204.3,415.3 286.8,415.3C369.3,415.3 436.5,348.1 436.5,265.6C436.5,225.7 420.5,187.6 392.5,159.6C386,166.3 377.6,176 368.6,188.3Z" style="fill:rgb(50,39,120);"/>
    </g>
</svg>
